<svg width="102" height="79" viewBox="0 0 102 79" fill="none" xmlns="http://www.w3.org/2000/svg">
<path d="M11.4937 92.9487L90.5103 92.9486C93.8532 92.9486 96.5632 90.2427 96.5632 86.9048L96.565 7.55191C96.565 4.21402 93.8551 1.50809 90.5121 1.50809L11.4955 1.50817C8.15261 1.50817 5.4426 4.21411 5.4426 7.55199L5.44083 86.9051C5.44083 90.2428 8.15084 92.9487 11.4937 92.9487Z" fill="#00077B"/>
<path d="M14.7596 89L87.2451 89C90.3117 89 92.7977 86.5177 92.7977 83.4557L92.7993 11.0011C92.7993 7.9391 90.3135 5.45682 87.2467 5.45682L14.7613 5.45689C11.6947 5.45689 9.20868 7.93917 9.20868 11.0012L9.20703 83.4559C9.20703 86.5177 11.693 89 14.7596 89Z" fill="#E6ECFE"/>
<path d="M25.4936 47.1344H20.1521C18.7469 47.1344 17.5972 45.8712 17.5972 44.3274V39.4934C17.5972 37.9496 18.7469 36.6865 20.1521 36.6865H25.4936C26.8988 36.6865 28.0484 37.9496 28.0484 39.4934V44.3274C28.0484 45.8713 26.8988 47.1344 25.4936 47.1344Z" fill="#A6BEFF"/>
<path d="M25.4936 61.9298H20.1521C18.7469 61.9298 17.5972 60.6666 17.5972 59.1228V54.2888C17.5972 52.745 18.7469 51.4818 20.1521 51.4818H25.4936C26.8988 51.4818 28.0484 52.745 28.0484 54.2888V59.1228C28.0484 60.6667 26.8988 61.9298 25.4936 61.9298Z" fill="#A6BEFF"/>
<path d="M25.4936 76.7254H20.1521C18.7469 76.7254 17.5972 75.4622 17.5972 73.9184V69.0844C17.5972 67.5406 18.7469 66.2774 20.1521 66.2774H25.4936C26.8988 66.2774 28.0484 67.5406 28.0484 69.0844V73.9184C28.0484 75.4623 26.8988 76.7254 25.4936 76.7254Z" fill="#A6BEFF"/>
<path d="M85.6798 43.394H35.4883C34.6712 43.394 34.0025 42.7265 34.0025 41.9104C34.0025 41.0946 34.671 40.4268 35.4883 40.4268H85.6798C86.4969 40.4268 87.1656 41.0944 87.1656 41.9104C87.1656 42.7263 86.4969 43.394 85.6798 43.394Z" fill="#A6BEFF"/>
<path d="M85.6134 58.53H35.4219C34.6048 58.53 33.9361 57.8625 33.9361 57.0464C33.9361 56.2305 34.6046 55.5628 35.4219 55.5628H85.6134C86.4305 55.5628 87.0992 56.2303 87.0992 57.0464C87.0992 57.8622 86.4305 58.53 85.6134 58.53Z" fill="#A6BEFF"/>
<path d="M85.6134 73.3254H35.4219C34.6048 73.3254 33.9361 72.6579 33.9361 71.8418C33.9361 71.0259 34.6046 70.3582 35.4219 70.3582H85.6134C86.4305 70.3582 87.0992 71.0257 87.0992 71.8418C87.0992 72.6577 86.4305 73.3254 85.6134 73.3254Z" fill="#A6BEFF"/>
<path d="M30.019 63.4559C30.5547 62.8861 31.1716 62.5958 32.0191 63.3927C32.8666 64.1895 32.6175 64.8227 32.0824 65.3928L23.7024 74.3103C23.4408 74.5884 23.3455 74.753 22.6945 74.753C22.0435 74.753 21.9459 74.6138 21.6746 74.3459L16.7534 69.476C16.1982 68.9262 15.9397 68.2831 16.7415 67.4759C17.5406 66.6715 18.1894 66.9138 18.7456 67.4641L22.6352 71.3062L30.019 63.4559Z" fill="#EE9847"/>
<path d="M30.019 48.367C30.5547 47.7973 31.1716 47.507 32.0191 48.3038C32.8666 49.1006 32.6175 49.7338 32.0824 50.3039L23.7024 59.2215C23.4408 59.4995 23.3455 59.6642 22.6945 59.6642C22.0435 59.6642 21.9459 59.525 21.6746 59.257L16.7534 54.3872C16.1982 53.8373 15.9397 53.1942 16.7415 52.3871C17.5406 51.5826 18.1894 51.8249 18.7456 52.3752L22.6352 56.2173L30.019 48.367Z" fill="#EE9847"/>
<path d="M38.9117 20.9894C38.9117 23.4531 38.081 25.7223 36.6813 27.5338C36.2172 28.1352 35.6906 28.6858 35.1115 29.1754C33.2391 30.7617 30.8152 31.7176 28.1673 31.7176C25.7609 31.7176 23.5408 30.9287 21.7498 29.5938C20.9597 29.0069 20.2541 28.3125 19.6533 27.5338C18.2537 25.7223 17.4229 23.4531 17.4229 20.9894C17.4229 15.0638 22.2327 10.2612 28.1672 10.2612C34.1017 10.2612 38.9117 15.0638 38.9117 20.9894Z" fill="white"/>
<mask id="mask0_664_27" style="mask-type:alpha" maskUnits="userSpaceOnUse" x="17" y="10" width="22" height="22">
<path d="M38.9117 20.9894C38.9117 23.4531 38.081 25.7223 36.6813 27.5338C36.2172 28.1352 35.6906 28.6858 35.1115 29.1754C33.2391 30.7617 30.8152 31.7176 28.1673 31.7176C25.7609 31.7176 23.5408 30.9287 21.7498 29.5938C20.9597 29.0069 20.2541 28.3125 19.6533 27.5338C18.2537 25.7223 17.4229 23.4531 17.4229 20.9894C17.4229 15.0638 22.2327 10.2612 28.1672 10.2612C34.1017 10.2612 38.9117 15.0638 38.9117 20.9894Z" fill="white"/>
</mask>
<g mask="url(#mask0_664_27)">
<path d="M33.8612 27.2195C33.8226 27.1765 33.7854 27.1365 33.7498 27.0994C33.5849 26.9733 33.4201 26.8947 32.7577 26.7805C32.4205 26.7242 31.9527 26.6575 31.2888 26.5714C31.2888 26.5714 31.1462 26.5551 31.0705 26.5492C31.02 26.5447 30.9665 26.5403 30.9042 26.5344C30.7141 26.435 30.665 25.6475 30.6665 24.8171C30.6665 24.7548 30.668 24.6925 30.668 24.6302C30.671 24.3158 30.6814 24.0059 30.6933 23.7271C30.6933 23.7093 30.6947 23.693 30.6947 23.6752C31.1047 23.7093 31.3764 23.7063 31.3764 23.7063C32.1398 23.6455 32.6166 21.602 32.7874 19.95C32.7874 19.95 33.1646 19.0439 33.1646 18.0637C33.1646 17.512 33.0458 16.9381 32.6745 16.4873C32.4814 16.2559 32.3032 16.1032 32.1384 16.0068C32.0908 15.9593 32.0418 15.9163 31.9943 15.8748C31.2844 15.0873 28.3971 12.1362 26.502 13.8431C26.453 13.6726 25.8368 11.7566 22.8484 12.3839C23.0341 12.3646 24.3589 12.24 24.7421 12.7754C24.6901 12.7531 23.5331 12.24 22.8039 12.6879C22.4667 12.8926 22.2573 13.3182 22.1385 13.766C22.137 13.769 22.137 13.772 22.1355 13.7749C22.1355 13.7779 22.1341 13.7794 22.1341 13.7823V13.7838C22.1326 13.7883 22.1311 13.7927 22.1311 13.7972C22.1177 13.858 22.1029 13.9188 22.0895 13.9796C22.088 13.9885 22.085 13.9974 22.0836 14.0077C22.0836 14.0107 22.0821 14.0122 22.0821 14.0152C22.0821 14.0166 22.0821 14.0166 22.0821 14.0181C21.993 14.4808 21.993 14.9301 22.0464 15.1481C22.1578 15.6153 22.9821 17.0063 23.5287 17.0063C23.7366 17.0063 23.9564 16.9381 24.1524 16.8536C24.0678 17.0997 23.992 17.3696 23.9297 17.6633C23.3489 20.3904 25.1639 22.4621 26.104 21.949C26.707 21.6213 27.1629 22.6742 27.1629 22.6742L27.1659 22.6698C27.0768 24.6643 26.5288 25.9664 26.1218 26.2912C25.9763 26.3075 25.6614 26.346 25.2678 26.4083V26.4068C25.2678 26.4068 23.8821 26.5581 22.8276 27.0163C22.8187 27.0193 22.8113 27.0223 22.8024 27.0267C22.5618 27.1261 22.3568 27.2373 22.2039 27.3589C22.2024 27.3619 22.2007 27.3633 22.1994 27.3633V27.3648C22.1192 27.4271 22.0539 27.4938 22.0063 27.565C21.9811 27.5947 21.9603 27.6243 21.9439 27.6555C21.592 28.3258 21.237 29.3327 20.8969 30.5132C22.9227 32.0228 25.4342 32.9156 28.1565 32.9156C31.1522 32.9156 33.8939 31.8345 36.0118 30.0401C35.2335 28.4207 34.3455 27.5858 33.8612 27.2195Z" fill="#356BF5"/>
</g>
<path d="M85.8057 21.1054H45.8473C45.0302 21.1054 44.3615 20.4379 44.3615 19.6218V13.9146C44.3615 13.0987 45.03 12.431 45.8473 12.431H85.8057C86.6227 12.431 87.2915 13.0985 87.2915 13.9146V19.6218C87.2915 20.4377 86.6227 21.1054 85.8057 21.1054Z" fill="#A6BEFF"/>
<path d="M66.31 26.1766H45.6504C44.9416 26.1766 44.3615 25.5974 44.3615 24.8897C44.3615 24.182 44.9416 23.6028 45.6504 23.6028H66.31C67.0188 23.6028 67.5989 24.182 67.5989 24.8897C67.5989 25.5974 67.019 26.1766 66.31 26.1766Z" fill="#A6BEFF"/>
<path d="M56.3137 31.3465H45.5998C44.9187 31.3465 44.3615 30.7901 44.3615 30.1101V30.0091C44.3615 29.329 44.9187 28.7726 45.5998 28.7726H56.3137C56.9948 28.7726 57.5521 29.329 57.5521 30.0091V30.1101C57.5523 30.7901 56.9948 31.3465 56.3137 31.3465Z" fill="#A6BEFF"/>
<path d="M78.1854 31.3465H61.9568C61.2758 31.3465 60.7186 30.7901 60.7186 30.1101V30.0091C60.7186 29.329 61.2758 28.7726 61.9568 28.7726H78.1854C78.8664 28.7726 79.4237 29.329 79.4237 30.0091V30.1101C79.4239 30.7901 78.8664 31.3465 78.1854 31.3465Z" fill="#A6BEFF"/>
<path d="M85.3915 26.1766H72.0565C71.3477 26.1766 70.7676 25.5974 70.7676 24.8897C70.7676 24.182 71.3477 23.6028 72.0565 23.6028H85.3915C86.1002 23.6028 86.6803 24.182 86.6803 24.8897C86.6803 25.5974 86.1005 26.1766 85.3915 26.1766Z" fill="#A6BEFF"/>
</svg>
